PathFileType	4	(X/Y/Z)	13_1_49_p1_0-449.trc
DataRate	CameraRate	NumFrames	NumMarkers	Units	OrigDataRate	OrigDataStartFrame	OrigNumFrames
59.0	59.0	5	27	m	59.0	56	450
Frame#	Time	RHip			RKnee			RAnkle			RBigToe			RSmallToe			RHeel			LHip			LKnee			LAnkle			LBigToe			LSmallToe			LHeel			Neck			Head			Nose			RShoulder			RElbow			RWrist			RThumb			RIndex			RPinky			LShoulder			LElbow			LWrist			LThumb			LIndex			LPinky			
		X1	Y1	Z1	X2	Y2	Z2	X3	Y3	Z3	X4	Y4	Z4	X5	Y5	Z5	X6	Y6	Z6	X7	Y7	Z7	X8	Y8	Z8	X9	Y9	Z9	X10	Y10	Z10	X11	Y11	Z11	X12	Y12	Z12	X13	Y13	Z13	X14	Y14	Z14	X15	Y15	Z15	X16	Y16	Z16	X17	Y17	Z17	X18	Y18	Z18	X19	Y19	Z19	X20	Y20	Z20	X21	Y21	Z21	X22	Y22	Z22	X23	Y23	Z23	X24	Y24	Z24	X25	Y25	Z25	X26	Y26	Z26	X27	Y27	Z27	
56	0.9491525423728814	0.29433546363751145	0.8698061128728103	0.6071027353256048	0.28861716838811896	1.0523607913939985	1.021460634831357	0.28208167065962303	1.2491315048593596	1.3725896574292344	0.2619357656491357	1.1187163336508414	1.4665732254852148	0.3338129116387077	1.0852003149189409	1.4423846362499184	0.2563585231002663	1.3951397058141706	1.4401473162680594	0.09082590287693344	0.9264930070173997	0.6146372794603097	0.08990220086341441	1.0631034318871941	1.0175658787225128	0.08058406316996294	1.2526571547273555	1.4027326290057844	0.11171280559236911	1.038601182758013	1.4522085067340764	0.05468884274625767	1.0912385111514482	1.4485723995725546	0.1076814719055509	1.3438928689093161	1.4306533849213756	0.11818773926442579	0.6034901233841984	0.1945247168074419	0.055033629891279176	0.4007075123881124	0.01350380465513168	0.07050812984967023	0.46393465974773235	0.17076483889240704	0.27505966955433137	0.5867000463233394	0.21662528976643508	0.2966787067310474	0.49750565661473767	0.4567134730673896	0.1422925753725977	0.34008880662647356	0.4097589004954837	0.049067768921505675	0.30480837762487173	0.3831355275511384	0.03134308651635239	0.24616900914614467	0.38125740317262197	0.0617108007832521	0.24716989942482687	0.39996898106533724	0.011819475394958093	0.7069564160640222	0.23251275842140406	-0.02254256475980027	0.8543242539157118	0.4646685380701757	0.02641404185784585	0.8118777223945058	0.6963906700783509	0.033884839290905355	0.8156446310713653	0.8031261219187055	0.00466378830829809	0.824304650510732	0.8351257111035615	0.00020908144834489491	0.8627493946787772	0.8187586626736675
57	0.9661016949152542	0.2981801337086396	0.8844379784376439	0.6058077206495338	0.29253049218714106	1.0527362397479565	1.0173923398831617	0.2774774933364667	1.2539128406765954	1.381863451594296	0.25678885326973566	1.08814019201416	1.4558795338442045	0.32697133944403395	1.0557919913270135	1.4371154312054326	0.2576536240401235	1.3988731099639615	1.4463355734014578	0.09621037896438936	0.9594605666435985	0.6107765178791553	0.08931392036537933	1.0642625462017028	1.021720004553249	0.08067418545038516	1.2525122868812046	1.402956643141759	0.10886120807868283	1.0191390961637903	1.444765129915606	0.06019976078267006	1.0741460109729641	1.4451811012799387	0.10865563552895716	1.3487456498619357	1.4351900377407776	0.11775174500906889	0.6072366907347554	0.1985168769581445	0.05444019674327619	0.4028349874422998	0.019442123132653095	0.06672212222921826	0.46470675582359483	0.17493560896570745	0.26753861156593256	0.5747556849247799	0.2240254499439242	0.2896348916534616	0.48877705141649647	0.46883150798153167	0.13583906880361574	0.31734575989100333	0.41375163070591564	0.04511590211693379	0.30154128724142426	0.38030562028965176	0.03136416843905955	0.2433544996287648	0.37627966180982575	0.05142167819905707	0.24285585646239435	0.3955196440777464	-0.00021664119056014067	0.7053401295745332	0.2375805630589016	-0.020413406584908134	0.8691194497694297	0.4673734296684731	0.028840296972031346	0.8289521816768234	0.7071145726921373	0.03302143730307954	0.8436341942838591	0.8205250021132829	0.006852546925442589	0.8575440478259907	0.8481703452549735	-5.6289051927772794e-05	0.8682359957067879	0.8275524232495512
58	0.9830508474576272	0.3023872136304716	0.8712892125896378	0.6100623971032785	0.2905226847943887	1.0511193673044095	1.0136262957720819	0.28103108547291134	1.2513889274688335	1.3767680268607672	0.25514246961941595	1.0860428160972793	1.4554991027703241	0.3264795873580539	1.0871972204423734	1.4428229284027827	0.2566755570252852	1.4024418467386166	1.4502480998275342	0.10411855070999367	0.9826807207412679	0.6211485074251744	0.09530859329213393	1.0694861416452388	1.0257770962553057	0.08496624191041251	1.2547248807737437	1.403125052063504	0.11279314452438836	1.0511116576567063	1.4457746695414766	0.05446627477346616	1.0927425368587773	1.4442979836595404	0.10492696255364459	1.3580580649334868	1.433728796132521	0.11773462010154405	0.6103433132866095	0.20572829142100588	0.04369917011843313	0.4015606472774109	0.0238446861946116	0.06438255786252661	0.45447714979949	0.18498316116638097	0.25979523702301327	0.5630799911257093	0.2346419051705181	0.28231751785488907	0.47839536362146656	0.47811246298139154	0.1278939769260512	0.3156848460053939	0.4176907193487892	0.04320644583385479	0.3120296625226551	0.3818865370849588	0.03348045197842203	0.24730562953189508	0.377220677960372	0.06096182439036373	0.21307020069318927	0.40133039754610167	-0.004410878551656543	0.7085722436847903	0.2489475320719154	-0.02429225348629544	0.919571597298275	0.47947250476315983	0.028828136552564883	0.8546985746842101	0.7176933074305849	0.04548165943510853	0.8479871892765433	0.8287175784226388	0.015145623037695923	0.8600576638637186	0.854871147219166	0.0008822685528092573	0.8727471449234369	0.8369781229688723
59	1.0	0.29858704784329543	0.893822852462723	0.6285368111890991	0.28751439978248816	1.0525271276316048	1.021718861645008	0.28116211853026546	1.257249406105334	1.3862032305102774	0.26365209762909264	1.0847345807835687	1.4633361503649465	0.329699457891339	1.102250928089148	1.445788048382558	0.2567668252937691	1.4015233050876528	1.4556084578022013	0.10419398437098565	0.9881936924110838	0.6334290790070028	0.10517586933546944	1.0648602877708222	1.0176273052850247	0.08954192600399966	1.2571140944652244	1.4034404088949388	0.10901671050593591	1.052593044311054	1.455423333860231	0.05671987243970288	1.1063007157391636	1.4509258224383592	0.10913775586873736	1.360273382082518	1.4345104391034926	0.1169984981764779	0.6124070957263447	0.21313960467363977	0.035323618553335275	0.3828329659955955	0.04091242936479807	0.06201414302719203	0.44715736084366847	0.20103896434864568	0.2530306241778226	0.5519418267903763	0.24372281010080338	0.2716800977876744	0.4569989286591489	0.4890463452385907	0.11753764786589666	0.31695408261201424	0.42408478994511	0.028369203319523688	0.2883852815229679	0.3862344946256163	0.021950133968548727	0.24858640518007943	0.38053245252866164	0.038041325604508534	0.24779618812011545	0.40402099375252615	-0.01419627447784364	0.6959950219369819	0.2590416393914021	-0.017584724293297344	0.9052992181809394	0.4850893291570007	0.023763311610569694	0.8516883089470096	0.718889219769794	0.043549300401822685	0.8869742336554333	0.844611858268899	0.026437711953064404	0.8678657580524394	0.8615916673596126	0.007837927227804064	0.8761488582333665	0.8478878756706154
60	1.0169491525423728	0.30197351253642496	0.8962977036920294	0.6241706468625808	0.2822387626058107	1.0535859807445274	1.0223228529256285	0.27647727531278604	1.2359815841736477	1.3788076803230365	0.2631447632026049	1.082790197273604	1.458795072176371	0.3263177816601058	1.0868593732031722	1.4429326082772278	0.25677921175988133	1.3586933206982919	1.4428118261577374	0.09805242961746623	1.006598431842235	0.6322423969911279	0.10194422536267239	1.0491704458303595	1.0212934580614987	0.08977018790259335	1.256503565688976	1.403107864594294	0.1131346509297798	1.0507637028392045	1.4511786071661996	0.055781210601462995	1.0899458219503009	1.4450683589002007	0.10693441508557801	1.3486542227851164	1.432524932687718	0.11278018986397115	0.6309093056486439	0.22834458784801512	0.02192959086381527	0.37473068704418894	0.06424714592807537	0.05893394857125663	0.4507347349608224	0.2149020788704219	0.2502477440149074	0.5539108809255716	0.25353265058518243	0.2649650172606004	0.4487145900843974	0.5013713772013602	0.11052996715008732	0.31810969741946227	0.4284182578815852	0.02404797336214365	0.28050205446416615	0.40198253970109915	0.013766532827264324	0.2519959291035874	0.3936959037476247	0.030721637677325817	0.26796907506589746	0.4231560183058556	-0.009898014084642137	0.7035994228754484	0.2689993867842393	-0.024888415760243036	0.8949332753901265	0.5076553814568652	0.024618333731648085	0.8687754486643067	0.7273648173171657	0.056770829492458416	0.9331662875842335	0.8482409545113214	0.03132482457317437	0.8891089283033492	0.8660457497661384	0.008580969449237605	0.8788801292988448	0.8547621588171619
